<mxfile host="app.diagrams.net" modified="2022-11-10T14:41:02.396Z" agent="5.0 (Windows NT 10.0; Win64; x64) AppleWebKit/537.36 (KHTML, like Gecko) Chrome/107.0.0.0 Safari/537.36" etag="POx8mjzu2gi2F--63qSQ" version="20.5.3" type="github">
  <diagram name="Page-1" id="10a91c8b-09ff-31b1-d368-03940ed4cc9e">
    <mxGraphModel dx="1221" dy="644" grid="1" gridSize="10" guides="1" tooltips="1" connect="1" arrows="1" fold="1" page="1" pageScale="1" pageWidth="1100" pageHeight="850" background="none" math="0" shadow="0">
      <root>
        <mxCell id="0" />
        <mxCell id="1" parent="0" />
        <mxCell id="G18HyuBuuOVfCSPqc0vQ-26" value="" style="edgeStyle=orthogonalEdgeStyle;rounded=0;orthogonalLoop=1;jettySize=auto;html=1;curved=1;" edge="1" parent="1" source="G18HyuBuuOVfCSPqc0vQ-25" target="62893188c0fa7362-1">
          <mxGeometry relative="1" as="geometry" />
        </mxCell>
        <mxCell id="G18HyuBuuOVfCSPqc0vQ-29" style="edgeStyle=orthogonalEdgeStyle;curved=1;rounded=0;orthogonalLoop=1;jettySize=auto;html=1;exitX=0.5;exitY=1;exitDx=0;exitDy=0;fontFamily=Verdana;fontSize=17;" edge="1" parent="1" source="62893188c0fa7362-1" target="62893188c0fa7362-3">
          <mxGeometry relative="1" as="geometry" />
        </mxCell>
        <mxCell id="G18HyuBuuOVfCSPqc0vQ-30" style="edgeStyle=orthogonalEdgeStyle;curved=1;rounded=0;orthogonalLoop=1;jettySize=auto;html=1;exitX=0.5;exitY=1;exitDx=0;exitDy=0;entryX=0.5;entryY=0;entryDx=0;entryDy=0;fontFamily=Verdana;fontSize=17;" edge="1" parent="1" source="62893188c0fa7362-1" target="G18HyuBuuOVfCSPqc0vQ-36">
          <mxGeometry relative="1" as="geometry">
            <mxPoint x="550" y="430" as="targetPoint" />
          </mxGeometry>
        </mxCell>
        <mxCell id="G18HyuBuuOVfCSPqc0vQ-42" style="edgeStyle=orthogonalEdgeStyle;curved=1;rounded=0;orthogonalLoop=1;jettySize=auto;html=1;exitX=0.5;exitY=1;exitDx=0;exitDy=0;fontFamily=Verdana;fontSize=17;" edge="1" parent="1" source="62893188c0fa7362-1" target="G18HyuBuuOVfCSPqc0vQ-39">
          <mxGeometry relative="1" as="geometry" />
        </mxCell>
        <mxCell id="62893188c0fa7362-1" value="&lt;font style=&quot;font-size: 14px;&quot;&gt;&lt;b style=&quot;font-size: 14px;&quot;&gt;Scaffold&lt;/b&gt;&lt;/font&gt;" style="whiteSpace=wrap;html=1;rounded=1;shadow=1;labelBackgroundColor=none;strokeWidth=2;fontFamily=Verdana;fontSize=14;align=center;spacing=2;fillColor=#f8cecc;strokeColor=#b85450;" parent="1" vertex="1">
          <mxGeometry x="475" y="310" width="150" height="60" as="geometry" />
        </mxCell>
        <mxCell id="62893188c0fa7362-3" value="&lt;span style=&quot;font-size: 14px;&quot;&gt;&lt;b style=&quot;font-size: 14px;&quot;&gt;NurseAppBar&lt;/b&gt;&lt;/span&gt;" style="whiteSpace=wrap;html=1;rounded=1;shadow=1;labelBackgroundColor=none;strokeWidth=2;fontFamily=Verdana;fontSize=14;align=center;spacing=2;fillColor=#ffe6cc;strokeColor=#d79b00;" parent="1" vertex="1">
          <mxGeometry x="315" y="430" width="150" height="60" as="geometry" />
        </mxCell>
        <mxCell id="G18HyuBuuOVfCSPqc0vQ-59" value="" style="edgeStyle=orthogonalEdgeStyle;curved=1;rounded=0;orthogonalLoop=1;jettySize=auto;html=1;fontFamily=Verdana;fontSize=14;" edge="1" parent="1" source="G18HyuBuuOVfCSPqc0vQ-58" target="G18HyuBuuOVfCSPqc0vQ-25">
          <mxGeometry relative="1" as="geometry" />
        </mxCell>
        <mxCell id="G18HyuBuuOVfCSPqc0vQ-25" value="&lt;span style=&quot;font-size: 14px;&quot;&gt;&lt;b&gt;Home&lt;/b&gt;&lt;/span&gt;" style="whiteSpace=wrap;html=1;fontFamily=Verdana;rounded=1;shadow=1;labelBackgroundColor=none;strokeWidth=2;spacing=2;fillColor=#f8cecc;strokeColor=#b85450;" vertex="1" parent="1">
          <mxGeometry x="475" y="220" width="150" height="60" as="geometry" />
        </mxCell>
        <mxCell id="G18HyuBuuOVfCSPqc0vQ-45" style="edgeStyle=orthogonalEdgeStyle;curved=1;rounded=0;orthogonalLoop=1;jettySize=auto;html=1;exitX=0.5;exitY=1;exitDx=0;exitDy=0;fontFamily=Verdana;fontSize=14;entryX=0.5;entryY=0;entryDx=0;entryDy=0;" edge="1" parent="1" source="G18HyuBuuOVfCSPqc0vQ-36" target="G18HyuBuuOVfCSPqc0vQ-55">
          <mxGeometry relative="1" as="geometry">
            <mxPoint x="645.0588235294119" y="619.9999999999998" as="targetPoint" />
          </mxGeometry>
        </mxCell>
        <mxCell id="G18HyuBuuOVfCSPqc0vQ-46" style="edgeStyle=orthogonalEdgeStyle;curved=1;rounded=0;orthogonalLoop=1;jettySize=auto;html=1;exitX=0.5;exitY=1;exitDx=0;exitDy=0;entryX=0.5;entryY=0;entryDx=0;entryDy=0;fontFamily=Verdana;fontSize=14;" edge="1" parent="1" source="G18HyuBuuOVfCSPqc0vQ-36" target="G18HyuBuuOVfCSPqc0vQ-43">
          <mxGeometry relative="1" as="geometry" />
        </mxCell>
        <mxCell id="G18HyuBuuOVfCSPqc0vQ-36" value="&lt;span style=&quot;font-size: 14px;&quot;&gt;&lt;b&gt;Column&lt;/b&gt;&lt;/span&gt;" style="whiteSpace=wrap;html=1;rounded=1;shadow=1;labelBackgroundColor=none;strokeWidth=2;fontFamily=Verdana;fontSize=12;align=center;spacing=2;fillColor=#dae8fc;strokeColor=#6c8ebf;" vertex="1" parent="1">
          <mxGeometry x="475" y="430" width="150" height="60" as="geometry" />
        </mxCell>
        <mxCell id="G18HyuBuuOVfCSPqc0vQ-39" value="&lt;b&gt;Vaccination&lt;br&gt;Button&lt;/b&gt;" style="whiteSpace=wrap;html=1;rounded=1;shadow=1;labelBackgroundColor=none;strokeWidth=2;fontFamily=Verdana;fontSize=14;align=center;spacing=2;fillColor=#008a00;strokeColor=#005700;fontColor=#ffffff;" vertex="1" parent="1">
          <mxGeometry x="635" y="430" width="150" height="60" as="geometry" />
        </mxCell>
        <mxCell id="G18HyuBuuOVfCSPqc0vQ-48" style="edgeStyle=orthogonalEdgeStyle;curved=1;rounded=0;orthogonalLoop=1;jettySize=auto;html=1;exitX=0.5;exitY=1;exitDx=0;exitDy=0;entryX=0.5;entryY=0;entryDx=0;entryDy=0;fontFamily=Verdana;fontSize=14;" edge="1" parent="1" source="G18HyuBuuOVfCSPqc0vQ-43" target="G18HyuBuuOVfCSPqc0vQ-47">
          <mxGeometry relative="1" as="geometry" />
        </mxCell>
        <mxCell id="G18HyuBuuOVfCSPqc0vQ-43" value="&lt;span style=&quot;font-size: 14px;&quot;&gt;&lt;b&gt;Expanded&lt;/b&gt;&lt;/span&gt;" style="whiteSpace=wrap;html=1;rounded=1;shadow=1;labelBackgroundColor=none;strokeWidth=2;fontFamily=Verdana;fontSize=12;align=center;spacing=2;fillColor=#b0e3e6;strokeColor=#0e8088;" vertex="1" parent="1">
          <mxGeometry x="315" y="540" width="150" height="60" as="geometry" />
        </mxCell>
        <mxCell id="G18HyuBuuOVfCSPqc0vQ-47" value="&lt;span style=&quot;font-size: 14px;&quot;&gt;&lt;b&gt;Vaccination&lt;br&gt;CountStatus&lt;/b&gt;&lt;/span&gt;" style="whiteSpace=wrap;html=1;rounded=1;shadow=1;labelBackgroundColor=none;strokeWidth=2;fontFamily=Verdana;fontSize=12;align=center;spacing=2;fillColor=#b0e3e6;strokeColor=#0e8088;" vertex="1" parent="1">
          <mxGeometry x="315" y="640" width="150" height="60" as="geometry" />
        </mxCell>
        <mxCell id="G18HyuBuuOVfCSPqc0vQ-53" style="edgeStyle=orthogonalEdgeStyle;curved=1;rounded=0;orthogonalLoop=1;jettySize=auto;html=1;exitX=0.5;exitY=1;exitDx=0;exitDy=0;entryX=0.5;entryY=0;entryDx=0;entryDy=0;fontFamily=Verdana;fontSize=14;" edge="1" parent="1" source="G18HyuBuuOVfCSPqc0vQ-55" target="G18HyuBuuOVfCSPqc0vQ-56">
          <mxGeometry relative="1" as="geometry" />
        </mxCell>
        <mxCell id="G18HyuBuuOVfCSPqc0vQ-55" value="&lt;span style=&quot;font-size: 14px;&quot;&gt;&lt;b&gt;Expanded&lt;/b&gt;&lt;/span&gt;" style="whiteSpace=wrap;html=1;rounded=1;shadow=1;labelBackgroundColor=none;strokeWidth=2;fontFamily=Verdana;fontSize=12;align=center;spacing=2;fillColor=#1ba1e2;fontColor=#ffffff;strokeColor=#006EAF;" vertex="1" parent="1">
          <mxGeometry x="635" y="540" width="150" height="60" as="geometry" />
        </mxCell>
        <mxCell id="G18HyuBuuOVfCSPqc0vQ-56" value="&lt;span style=&quot;font-size: 14px;&quot;&gt;&lt;b&gt;LastVaccinations&lt;br&gt;List&lt;/b&gt;&lt;/span&gt;" style="whiteSpace=wrap;html=1;rounded=1;shadow=1;labelBackgroundColor=none;strokeWidth=2;fontFamily=Verdana;fontSize=12;align=center;spacing=2;fillColor=#1ba1e2;fontColor=#ffffff;strokeColor=#006EAF;" vertex="1" parent="1">
          <mxGeometry x="635" y="640" width="150" height="60" as="geometry" />
        </mxCell>
        <mxCell id="G18HyuBuuOVfCSPqc0vQ-61" value="" style="edgeStyle=orthogonalEdgeStyle;curved=1;rounded=0;orthogonalLoop=1;jettySize=auto;html=1;fontFamily=Verdana;fontSize=14;" edge="1" parent="1" source="G18HyuBuuOVfCSPqc0vQ-60" target="G18HyuBuuOVfCSPqc0vQ-58">
          <mxGeometry relative="1" as="geometry" />
        </mxCell>
        <mxCell id="G18HyuBuuOVfCSPqc0vQ-58" value="&lt;span style=&quot;font-size: 14px;&quot;&gt;&lt;b&gt;MaterialApp&lt;/b&gt;&lt;/span&gt;" style="whiteSpace=wrap;html=1;fontFamily=Verdana;fillColor=#f8cecc;strokeColor=#b85450;rounded=1;shadow=1;labelBackgroundColor=none;strokeWidth=2;spacing=2;" vertex="1" parent="1">
          <mxGeometry x="475" y="130" width="150" height="60" as="geometry" />
        </mxCell>
        <mxCell id="G18HyuBuuOVfCSPqc0vQ-60" value="&lt;span style=&quot;font-size: 14px;&quot;&gt;&lt;b&gt;Nurse&lt;br&gt;&lt;/b&gt;&lt;/span&gt;" style="whiteSpace=wrap;html=1;fontFamily=Verdana;fillColor=#f8cecc;strokeColor=#b85450;rounded=1;shadow=1;labelBackgroundColor=none;strokeWidth=2;spacing=2;" vertex="1" parent="1">
          <mxGeometry x="475" y="40" width="150" height="60" as="geometry" />
        </mxCell>
      </root>
    </mxGraphModel>
  </diagram>
</mxfile>
